<svg xmlns="http://www.w3.org/2000/svg" xmlns:xlink="http://www.w3.org/1999/xlink" version="1.1" x="0px" y="0px" viewBox="0 0 100 125" style="enable-background:new 0 0 100 100;" xml:space="preserve"><path fill="url(#gradient)" d="M15.8,64.5c9.1,6.6,20.9,8.4,31.6,5.2C58,66.5,67.3,59,73.8,50.3c3.3-4.3,5.9-9,8-14c-0.3,4.1-0.1,8.2,0.7,12.3  c0.1,0.6,0.5,2,1.4,1.6c0.8-0.4,0.9-2.1,0.8-2.8c-0.9-4.7-1-9.4-0.2-14.1c0-0.1,0-0.2,0-0.3c1-1,0.4-5.3-1.2-3.9  c-2.2,2-4.6,3.8-7.2,5.3c-1.3,0.7-2.7,1.4-4,2c-1.4,0.6-2.8,1.2-4.3,1c-0.9-0.1-1.1,1.7-1.1,2.3c0,0.7,0.2,2.2,1.1,2.3  c1.6,0.2,3.2-0.4,4.7-1c1.5-0.6,2.9-1.3,4.3-2.1c0.4-0.2,0.9-0.5,1.3-0.8c-3.6,7.1-8.8,13.5-14.9,18.4c-4.3,3.5-9,6.4-14.2,8.3  c-5.1,1.9-10.6,2.5-16,1.9c-5.9-0.7-11.6-2.9-16.5-6.4c-0.8-0.6-1.3,1.1-1.4,1.6C14.9,62.6,15,63.9,15.8,64.5z"/><defs><linearGradient id="gradient" x1="0%" y1="0%" x2="100%" y2="0%"><stop offset="0%" stop-color="#c831f9"/><stop offset="100%" stop-color="#28c2fd"/></linearGradient></defs></svg>