<svg xmlns="http://www.w3.org/2000/svg" xmlns:xlink="http://www.w3.org/1999/xlink" version="1.1" x="0px" y="0px" viewBox="0 0 100 125" style="enable-background:new 0 0 100 100;" xml:space="preserve"><path fill="url(#gradient)" d="M20.1,80.9c-0.1,0.6-0.2,2,0.5,2c8.3,0.3,16.6,1,24.8,2.1c0.8,0.1,1.3-1,1.5-1.7c0.1-0.5,0.4-2.1-0.5-2.2  c-7.3-1-14.6-1.6-21.9-1.9c11.4-3.6,23-7.3,33-14c4.6-3.1,8.9-6.8,12.4-11.1c3.9-4.8,6.6-10.3,8.2-16.2c1.9-7.1,2.3-14.5,1.7-21.7  c0-0.6-0.4-1.5-1.1-1c-0.7,0.5-1.1,1.7-1,2.6c0.4,5.9,0.3,12-1,17.8c-1.2,5.4-3.4,10.3-6.8,14.7C63.1,59,53.4,64.8,43.4,68.9  c-5.4,2.2-10.9,4-16.5,5.8c2.7-4,4.7-8.5,5.9-13.2c0.1-0.6,0.3-1.9-0.5-2.2c-0.8-0.2-1.3,1.2-1.5,1.7c-1.6,6.5-5.1,12.4-10.1,17.1  c-0.6,0.6-0.9,1.9-0.7,2.7C20,80.8,20,80.9,20.1,80.9z"/><defs><linearGradient id="gradient" x1="0%" y1="0%" x2="100%" y2="0%"><stop offset="0%" stop-color="#c831f9"/><stop offset="100%" stop-color="#28c2fd"/></linearGradient></defs></svg>