<svg xmlns="http://www.w3.org/2000/svg" xmlns:xlink="http://www.w3.org/1999/xlink" version="1.1" x="0px" y="0px" viewBox="0 0 100 125" style="enable-background:new 0 0 100 100;" xml:space="preserve"><path fill="url(#gradient)" d="M88.2,7.89c1.58-2.2-1.07-3.26-2.93-2.77c-10.25,2.73-20.62,4.9-31.1,6.52c-1.39,0.22-3.58,1.58-3.57,3.18  c0.01,1.79,2.23,1.69,3.42,1.5c4.1-0.63,8.19-1.36,12.26-2.16c-8.13,4.42-15.32,10.83-21.62,17.41  C34.34,42.36,25.85,54.83,19.65,68.42c-3.57,7.82-6.31,15.97-8.26,24.34c-0.86,3.72,6.1,2.27,6.72-0.42  c4.07-17.52,11.77-34.04,22.67-48.36c5.34-7.01,11.41-13.47,18.15-19.15c5.65-4.75,11.92-8.76,19.06-10.63  c-2.49,5.29-3.92,11.03-4.16,16.96c-0.13,3.23,6.88,1.2,7-1.68C81.14,21.67,83.64,14.25,88.2,7.89z"/><defs><linearGradient id="gradient" x1="0%" y1="0%" x2="100%" y2="0%"><stop offset="0%" stop-color="#c831f9"/><stop offset="100%" stop-color="#28c2fd"/></linearGradient></defs></svg>