<svg xmlns="http://www.w3.org/2000/svg" xmlns:xlink="http://www.w3.org/1999/xlink" version="1.1" x="0px" y="0px" viewBox="0 0 90 112.5" enable-background="new 0 0 90 90" xml:space="preserve"><path fill="url(#gradient)" d="M73.529,46.831c0.428-0.098,0.875-0.162,1.334-0.213c0.963-0.115,1.953-0.142,2.818-0.256  c-2.631-0.395-5.303-0.28-7.434-0.291c-2.525-0.011-5.484,0.01-9.316-0.038c-7.313-0.088-17.271-0.14-27.152,0.303  c-2.921,0.136-5.844,0.254-8.754,0.469c-1.093,0.083-2.188,0.167-3.281,0.25c-1.917,0.151-3.833,0.303-5.751,0.438  c-1.624,0.114-3.624,0.693-5.374,0.646c-1.995-0.054-3.385-1.032-3.818-2.912c-0.161-0.683-0.265-1.683,0.088-2.265  c0.355-0.584,0.552-0.75,0.767-0.907c0.52-0.369,1.162-0.656,1.468-0.667c4.218-0.12,8.926-0.016,12.702,0.088  c2.964,0.084,5.934,0.163,9.838,0.167c4.678,0.073,18.688,0.324,23.364,0.329c3.1,0.004,6.193,0.261,9.277,0.594  c2.566,0.276,5.16,0.568,7.797,0.896c2.551,0.312,4.066,0.333,6.645,0.692c0.402,0.052,0.875,0.104,1.387,0.167  c0.426,0.041,0.979,0.114,1.395,0.141c0.418,0.02,0.996,0.333,1.771,1.197c0.041,1.287-0.313,1.958-0.885,1.98  c-0.521,0.254-0.938,0.38-1.209,0.427c-1.041,0.229-2.016,0.301-2.75,0.187c-0.494-0.077-1.975,0.157-3.271,0.329  c-0.957,0.135-1.5,0.156-2.984-0.026c-0.781-0.203-0.801-0.803,0.109-1.307C72.717,47.066,73.182,46.91,73.529,46.831z"/><defs><linearGradient id="gradient" x1="0%" y1="0%" x2="100%" y2="0%"><stop offset="0%" stop-color="#9e58fa"/><stop offset="100%" stop-color="#876cfb"/></linearGradient></defs></svg>